<?xml version="1.0" encoding="UTF-8"?>
<svg version="1.1" xmlns="http://www.w3.org/2000/svg" width="238" height="230">
<path d="M0 0 C0 0.66 0 1.32 0 2 C0.66 2 1.32 2 2 2 C2.875 4.5625 2.875 4.5625 3 8 C1.35221084 10.68906308 -0.60352933 12.94934915 -3 15 C-3.66 15 -4.32 15 -5 15 C-5.433125 16.1446875 -5.433125 16.1446875 -5.875 17.3125 C-7 20 -7 20 -9 23 C-11.04287331 32.90134562 -9.92951723 41.29215452 -4.625 49.875 C-2.82275051 52.5982228 -1.10064635 54.90076623 1.2265625 57.1953125 C3 59 3 59 3 61 C3.66 61 4.32 61 5 61 C6.70341231 62.6290924 8.36253572 64.30463387 10 66 C12.03822215 67.9431893 14.11218626 69.84656021 16.1875 71.75 C16.72052734 72.24371094 17.25355469 72.73742187 17.80273438 73.24609375 C20.68080594 75.929262 20.68080594 75.929262 24 78 C24 78.66 24 79.32 24 80 C24.66 80 25.32 80 26 80 C27.70993434 81.6222454 29.37347684 83.29413425 31 85 C31.598125 85.556875 32.19625 86.11375 32.8125 86.6875 C34 88 34 88 34 90 C34.99 90.33 35.98 90.66 37 91 C37 91.66 37 92.32 37 93 C37.66 93 38.32 93 39 93 C42 96.46153846 42 96.46153846 42 99 C42.66 99 43.32 99 44 99 C54.96495035 111.48419046 59.55735161 129.51749994 59.3125 145.6875 C59.31572266 146.76322266 59.31894531 147.83894531 59.32226562 148.94726562 C59.20201649 166.79879695 51.27423845 183.15486674 39 196 C38.34 196 37.68 196 37 196 C37 196.66 37 197.32 37 198 C30.67489578 204.01245648 23.59497436 208.77138286 16 213 C15.16082031 213.50273437 14.32164062 214.00546875 13.45703125 214.5234375 C-4.9616614 225.24273573 -25.72280787 228.17704379 -46.6875 228.1875 C-47.96044922 228.19974609 -49.23339844 228.21199219 -50.54492188 228.22460938 C-62.16119527 228.24232611 -73.50476297 227.17321603 -84.625 223.6875 C-85.34244385 223.46658691 -86.0598877 223.24567383 -86.79907227 223.01806641 C-101.38480029 218.43094881 -116.55005388 211.40283375 -128 201 C-128 200.34 -128 199.68 -128 199 C-128.61875 198.7525 -129.2375 198.505 -129.875 198.25 C-132.35068687 196.79371361 -132.95125002 195.62187494 -134 193 C-134.66 193 -135.32 193 -136 193 C-148.82884741 179.16648382 -154.74150955 161.59692811 -154.2421875 143.01953125 C-153.20187993 121.33272343 -138.79509024 103.34417724 -127.5300293 85.69726562 C-125.16485661 81.96245698 -123.03720124 78.21085002 -121.0625 74.25 C-118.56267688 69.64035174 -116.83113452 67.11362135 -112 65 C-108.47687704 64.49669672 -106.53650994 64.78051866 -103.25 66.125 C-100.20461521 68.66282066 -99.75631284 70.08092435 -99 74 C-98.99444413 75.87510751 -99.01839184 77.75040311 -99.0625 79.625 C-99.23725159 92.46129885 -94.65104273 101.98077738 -87 112 C-86.98582031 110.87207031 -86.97164063 109.74414062 -86.95703125 108.58203125 C-86.23616319 80.16883329 -76.51486242 55.29164308 -59 33 C-58.34 33 -57.68 33 -57 33 C-57 32.34 -57 31.68 -57 31 C-56.34 31 -55.68 31 -55 31 C-54.61328125 30.12601563 -54.61328125 30.12601563 -54.21875 29.234375 C-52.90165983 26.8197097 -51.44911616 25.18259823 -49.5 23.25 C-48.8915625 22.63640625 -48.283125 22.0228125 -47.65625 21.390625 C-46 20 -46 20 -44 20 C-43.505 18.515 -43.505 18.515 -43 17 C-41.44140625 15.61328125 -41.44140625 15.61328125 -39.5625 14.3125 C-38.94503906 13.87550781 -38.32757813 13.43851563 -37.69140625 12.98828125 C-36 12 -36 12 -34 12 C-34 11.34 -34 10.68 -34 10 C-33.01 10 -32.02 10 -31 10 C-31 9.34 -31 8.68 -31 8 C-27.83973509 5.71723319 -24.40738118 3.88739726 -21 2 C-19.88625 1.38125 -18.7725 0.7625 -17.625 0.125 C-12.39292564 -1.49874722 -5.0794562 -2.5397281 0 0 Z " fill="#FF9100" transform="translate(165,1)"/>
<path d="M0 0 C0 0.66 0 1.32 0 2 C0.66 2 1.32 2 2 2 C2.875 4.5625 2.875 4.5625 3 8 C1.35221084 10.68906308 -0.60352933 12.94934915 -3 15 C-3.66 15 -4.32 15 -5 15 C-5.28875 15.763125 -5.5775 16.52625 -5.875 17.3125 C-7 20 -7 20 -9 23 C-11.04287331 32.90134562 -9.92951723 41.29215452 -4.625 49.875 C-2.82275051 52.5982228 -1.10064635 54.90076623 1.2265625 57.1953125 C3 59 3 59 3 61 C3.66 61 4.32 61 5 61 C6.70341231 62.6290924 8.36253572 64.30463387 10 66 C12.03822215 67.9431893 14.11218626 69.84656021 16.1875 71.75 C16.72052734 72.24371094 17.25355469 72.73742187 17.80273438 73.24609375 C20.68080594 75.929262 20.68080594 75.929262 24 78 C24 78.66 24 79.32 24 80 C24.66 80 25.32 80 26 80 C27.70993434 81.6222454 29.37347684 83.29413425 31 85 C31.598125 85.556875 32.19625 86.11375 32.8125 86.6875 C34 88 34 88 34 90 C35.485 90.495 35.485 90.495 37 91 C37 91.66 37 92.32 37 93 C37.66 93 38.32 93 39 93 C42 96.46153846 42 96.46153846 42 99 C42.66 99 43.32 99 44 99 C54.96495035 111.48419046 59.55735161 129.51749994 59.3125 145.6875 C59.31733398 147.30108398 59.31733398 147.30108398 59.32226562 148.94726562 C59.20201649 166.79879695 51.27423845 183.15486674 39 196 C38.34 196 37.68 196 37 196 C37 196.66 37 197.32 37 198 C30.67489578 204.01245648 23.59497436 208.77138286 16 213 C15.16082031 213.50273437 14.32164062 214.00546875 13.45703125 214.5234375 C-5.09083686 225.31791318 -25.90218227 228.25017175 -47 228 C-47.14658609 223.85454551 -47.23450196 219.70976726 -47.3125 215.5625 C-47.35439453 214.39783203 -47.39628906 213.23316406 -47.43945312 212.03320312 C-47.54836649 204.30035389 -46.5532006 199.28376195 -42 193 C-41.32839844 192.0409375 -40.65679687 191.081875 -39.96484375 190.09375 C-39.29582031 189.2378125 -38.62679687 188.381875 -37.9375 187.5 C-33.60600129 181.84739418 -29.4842895 176.07081206 -25.39697266 170.23974609 C-21.81491121 165.1352219 -18.1601375 160.09616734 -14.42578125 155.1015625 C-12.83794952 152.96539639 -12.83794952 152.96539639 -12 150 C-12.70640625 150.43828125 -13.4128125 150.8765625 -14.140625 151.328125 C-17.75451133 153.56183364 -21.37506534 155.78427368 -25 158 C-25.84030762 158.51369141 -26.68061523 159.02738281 -27.54638672 159.55664062 C-30.25691222 161.20972292 -32.97166139 162.85566365 -35.6875 164.5 C-36.57276367 165.04043945 -37.45802734 165.58087891 -38.37011719 166.13769531 C-39.61583496 166.88937988 -39.61583496 166.88937988 -40.88671875 167.65625 C-41.63139404 168.10806641 -42.37606934 168.55988281 -43.14331055 169.02539062 C-45 170 -45 170 -47 170 C-47.703125 166.9375 -47.703125 166.9375 -47 163 C-43.60362976 160.06486523 -39.70345552 158.09355564 -35.75 156 C-34.70585937 155.4225 -33.66171875 154.845 -32.5859375 154.25 C-30.47591473 153.08297506 -28.36063457 151.92540573 -26.24023438 150.77734375 C-21.09842208 147.95694038 -16.04994953 144.98148658 -11 142 C-12.24947569 138.71162188 -13.6460052 135.70694453 -15.44140625 132.68359375 C-15.93455322 131.85029541 -16.4277002 131.01699707 -16.93579102 130.15844727 C-17.74101196 128.81157837 -17.74101196 128.81157837 -18.5625 127.4375 C-19.12316162 126.49382568 -19.68382324 125.55015137 -20.26147461 124.57788086 C-25.8675108 115.16761297 -31.55661771 105.80710284 -37.26196289 96.45678711 C-37.61343384 95.88012299 -37.96490479 95.30345886 -38.32702637 94.70932007 C-39.28109212 93.14434299 -40.23632751 91.58007913 -41.19165039 90.01586914 C-41.78840576 89.02063232 -42.38516113 88.02539551 -43 87 C-43.72727295 86.00081543 -44.4545459 85.00163086 -45.20385742 83.97216797 C-48.23507861 78.59486432 -47.48913925 72.39600242 -47.390625 66.41015625 C-47.38496521 65.11049423 -47.37930542 63.81083221 -47.37347412 62.4717865 C-47.35829203 59.03726737 -47.31907694 55.60343827 -47.2746582 52.16918945 C-47.23354326 48.65650768 -47.21542874 45.14371305 -47.1953125 41.63085938 C-47.15257341 34.75362502 -47.08441429 27.87684575 -47 21 C-46.01 20.67 -45.02 20.34 -44 20 C-43.67 19.01 -43.34 18.02 -43 17 C-41.44140625 15.61328125 -41.44140625 15.61328125 -39.5625 14.3125 C-38.63630859 13.65701172 -38.63630859 13.65701172 -37.69140625 12.98828125 C-36 12 -36 12 -34 12 C-34 11.34 -34 10.68 -34 10 C-33.01 10 -32.02 10 -31 10 C-31 9.34 -31 8.68 -31 8 C-27.83973509 5.71723319 -24.40738118 3.88739726 -21 2 C-19.88625 1.38125 -18.7725 0.7625 -17.625 0.125 C-12.39292564 -1.49874722 -5.0794562 -2.5397281 0 0 Z " fill="#FF641A" transform="translate(165,1)"/>
<path d="M0 0 C2.77104571 2.49873425 4.52700272 5.28319974 6.44921875 8.46875 C7.46326782 10.14312134 7.46326782 10.14312134 8.49780273 11.85131836 C9.22793955 13.06740287 9.9578329 14.28363359 10.6875 15.5 C11.43997038 16.74825799 12.19265891 17.99638449 12.94555664 19.24438477 C14.90825611 22.50163234 16.86418335 25.76289042 18.81762695 29.0256958 C19.98721207 30.97864695 21.15847751 32.93058167 22.33007812 34.88232422 C24.18627181 37.97607086 26.03754368 41.07270886 27.88467407 44.171875 C28.5823608 45.34191944 29.28105908 46.51136134 29.98080444 47.68017578 C30.95832737 49.31453844 31.93044833 50.95212837 32.90234375 52.58984375 C33.45398193 53.51659912 34.00562012 54.44335449 34.57397461 55.39819336 C35.93535561 57.88205526 37.01104937 60.34872606 38 63 C37.17242187 63.49886719 36.34484375 63.99773437 35.4921875 64.51171875 C34.92854492 64.85195068 34.36490234 65.19218262 33.78417969 65.54272461 C32.48906502 66.31929656 31.19008251 67.08944728 29.88769531 67.85375977 C25.6612668 70.34533723 21.55658537 72.95405256 17.4921875 75.703125 C15.57823554 76.94808663 13.6641736 78.19287919 11.75 79.4375 C10.85265137 80.07196045 9.95530273 80.7064209 9.03076172 81.36010742 C6.31137975 83.08910947 4.1445162 84.28085957 1 85 C-3.23246758 83.86745114 -6.43064134 81.47867228 -10 79 C-11.72140348 77.97797081 -13.44322526 76.95645491 -15.17703247 75.95561218 C-16.98181911 74.91328262 -18.77444635 73.85264273 -20.56445312 72.78515625 C-21.1587915 72.4308252 -21.75312988 72.07649414 -22.36547852 71.71142578 C-22.96674561 71.35290527 -23.5680127 70.99438477 -24.1875 70.625 C-25.43804296 69.88132864 -26.68869342 69.13783801 -27.93945312 68.39453125 C-30.96087305 66.59842847 -33.98084657 64.79991069 -37 63 C-35.59685749 59.20039697 -33.83722271 55.89031936 -31.71875 52.44140625 C-31.049646 51.34666992 -30.38054199 50.25193359 -29.69116211 49.12402344 C-29.33424286 48.54390503 -28.97732361 47.96378662 -28.60958862 47.36608887 C-26.7021602 44.26564551 -24.8071438 41.15761948 -22.91015625 38.05078125 C-22.51373428 37.40233246 -22.11731232 36.75388367 -21.70887756 36.08578491 C-17.07507008 28.49990346 -12.50541779 20.87567256 -7.9375 13.25 C-7.13803977 11.91608565 -6.33856107 10.58218238 -5.5390625 9.24829102 C-3.6919184 6.1660001 -1.84566809 3.08317503 0 0 Z " fill="#FEE6DA" transform="translate(117,80)"/>
<path d="M0 0 C4.042 1.48378401 7.59310761 3.42245439 11.2890625 5.625 C11.87416595 5.97256348 12.45926941 6.32012695 13.06210327 6.67822266 C14.9184106 7.7821488 16.77166853 8.89108679 18.625 10 C19.87741951 10.74510214 21.13002196 11.48989686 22.3828125 12.234375 C31.4380454 17.6253636 31.4380454 17.6253636 35 20 C39.61174973 20.67133375 42.28594513 18.99669928 46.18359375 16.640625 C46.76158218 16.29497498 47.33957062 15.94932495 47.93507385 15.59320068 C49.77556291 14.48896003 51.60635967 13.36965974 53.4375 12.25 C54.6641282 11.512047 55.89133681 10.77505786 57.11914062 10.0390625 C62.49260759 6.80497148 67.8002082 3.50648504 73 0 C73.99 0.495 73.99 0.495 75 1 C74.22398437 2.06734375 73.44796875 3.1346875 72.6484375 4.234375 C61.20978722 20.00101804 50.05991726 35.96604588 39 52 C35.68451939 50.61292928 34.14578202 49.20408973 32.1875 46.2109375 C31.67517822 45.44185059 31.16285645 44.67276367 30.63500977 43.88037109 C30.09545654 43.05359863 29.55590332 42.22682617 29 41.375 C24.22087404 34.20869212 19.27148333 27.24221674 14.05126953 20.3918457 C10.8734771 16.20791331 7.8762652 11.95997504 5.0859375 7.50390625 C4.05835505 5.83611992 4.05835505 5.83611992 2 5 C1.27840576 3.35636866 0.60648579 1.68949614 0 0 Z " fill="#FFCA87" transform="translate(80,150)"/>
<path d="M0 0 C2 2 2 2 2.20254517 3.91091919 C2.18033905 4.68813324 2.15813293 5.46534729 2.13525391 6.26611328 C2.11508209 7.14687531 2.09491028 8.02763733 2.0741272 8.93508911 C2.02583267 10.36327469 2.02583267 10.36327469 1.9765625 11.8203125 C1.93902359 13.28100662 1.93902359 13.28100662 1.90072632 14.77120972 C1.81838269 17.88948644 1.72184869 21.00714329 1.625 24.125 C1.56677513 26.23565155 1.50947155 28.34632872 1.453125 30.45703125 C1.31278279 35.63836592 1.1607799 40.81926146 1 46 C0.28021973 46.29422852 -0.43956055 46.58845703 -1.18115234 46.89160156 C-8.7441949 50.00945214 -16.19931754 53.31920524 -23.625 56.75 C-24.69878906 57.24371094 -25.77257812 57.73742187 -26.87890625 58.24609375 C-31.96537694 60.56874964 -31.96537694 60.56874964 -37 63 C-35.59685749 59.20039697 -33.83722271 55.89031936 -31.71875 52.44140625 C-31.049646 51.34666992 -30.38054199 50.25193359 -29.69116211 49.12402344 C-29.33424286 48.54390503 -28.97732361 47.96378662 -28.60958862 47.36608887 C-26.7021602 44.26564551 -24.8071438 41.15761948 -22.91015625 38.05078125 C-22.51373428 37.40233246 -22.11731232 36.75388367 -21.70887756 36.08578491 C-17.07507008 28.49990346 -12.50541779 20.87567256 -7.9375 13.25 C-7.13803977 11.91608565 -6.33856107 10.58218238 -5.5390625 9.24829102 C-3.6919184 6.1660001 -1.84566809 3.08317503 0 0 Z " fill="#FECC8A" transform="translate(117,80)"/>
<path d="M0 0 C0 12.87 0 25.74 0 39 C-8.15512095 34.55175221 -16.2009543 30.04266854 -24.1875 25.3125 C-24.76024658 24.98016357 -25.33299316 24.64782715 -25.9230957 24.30541992 C-27.59425862 23.33531871 -29.25629964 22.34955586 -30.91796875 21.36328125 C-31.89531982 20.78876221 -32.8726709 20.21424316 -33.87963867 19.62231445 C-34.57935791 19.08695068 -35.27907715 18.55158691 -36 18 C-36 17.01 -36 16.02 -36 15 C-35.00742188 14.57589844 -34.01484375 14.15179688 -32.9921875 13.71484375 C-24.78761906 10.18191209 -16.74074263 6.46187711 -8.79296875 2.3828125 C-5.6472961 0.82537457 -3.52625993 0 0 0 Z " fill="#FEECD3" transform="translate(118,126)"/>
<path d="M0 0 C10.1126287 3.37087623 10.1126287 3.37087623 14.98828125 5.6640625 C16.02404297 6.14617187 17.05980469 6.62828125 18.12695312 7.125 C19.70379883 7.8675 19.70379883 7.8675 21.3125 8.625 C23.43210676 9.62036019 25.55314376 10.61268192 27.67578125 11.6015625 C28.60302002 12.03807129 29.53025879 12.47458008 30.4855957 12.92431641 C32.66609252 13.85715153 34.68566447 14.51402004 37 15 C35.63227648 19.10317057 33.73272588 19.56687423 29.98828125 21.65234375 C29.38243698 21.99374893 28.77659271 22.33515411 28.15238953 22.68690491 C26.2105061 23.77917243 24.26192604 24.85876147 22.3125 25.9375 C20.38231585 27.01497491 18.45364241 28.09506742 16.52616882 29.17738342 C14.76532582 30.16463862 13.00056027 31.14488801 11.2355957 32.12475586 C7.94164666 33.98237574 7.94164666 33.98237574 4.70776367 36.23657227 C2 38 2 38 0 38 C0 25.46 0 12.92 0 0 Z " fill="#FEF4F0" transform="translate(118,126)"/>
<path d="M0 0 C0.66 0.33 1.32 0.66 2 1 C1.22398437 2.06734375 0.44796875 3.1346875 -0.3515625 4.234375 C-6.393402 12.56318506 -12.37128356 20.93013245 -18.25 29.375 C-29.47451122 45.47508565 -29.47451122 45.47508565 -34 51 C-34.33 51 -34.66 51 -35 51 C-35.1238616 46.94343719 -35.21445733 42.88761022 -35.2746582 38.82958984 C-35.2997593 37.45016298 -35.33384873 36.07086858 -35.37719727 34.69189453 C-35.43802875 32.70664128 -35.46357937 30.72040641 -35.48828125 28.734375 C-35.51446533 27.54038086 -35.54064941 26.34638672 -35.56762695 25.11621094 C-35 22 -35 22 -32.81494141 19.78613281 C-30.05652079 18.03586349 -27.30625844 16.31377079 -24.47265625 14.6875 C-23.43302734 14.08679688 -22.39339844 13.48609375 -21.32226562 12.8671875 C-20.24654297 12.25101563 -19.17082031 11.63484375 -18.0625 11 C-8.87033114 5.75793375 -8.87033114 5.75793375 0 0 Z " fill="#FEE4D7" transform="translate(153,150)"/>
</svg>
